<?xml version="1.0" encoding="utf-8"?>
<!-- Generator: Adobe Illustrator 21.1.0, SVG Export Plug-In . SVG Version: 6.00 Build 0)  -->
<svg version="1.1" id="圖層_1" xmlns="http://www.w3.org/2000/svg" xmlns:xlink="http://www.w3.org/1999/xlink" x="0px" y="0px"
	 viewBox="0 0 660 179" style="enable-background:new 0 0 660 179;" xml:space="preserve">
<style type="text/css">
	.st0{fill:#EA5504;}
</style>
<g>
	<path class="st0" d="M157,66.3v8.1h-11.1v72.4h-9.3V74.4h-10.9v-8.1h10.9V39.2h9.3v27.1H157z M210.2,145.7c-2.4,0-7.8-0.2-16.2-0.6
		l-0.4-7.9c7.6,0.4,12.6,0.6,14.8,0.6c2.9,0,4.6-0.3,5.1-0.8c0.5-0.5,0.7-2.3,0.7-5.5v-15.4h-60.3v-7.7h60.3V102h-44h-8.9V62.1h31.5
		v-6.4h-38.9v-7.6h38.9V38h9.4v10.1h18.5c-4-3.9-7-6.6-8.9-8.3l7-3.9c4.3,3.7,8.5,7.7,12.9,12.2h8.1v7.6h-37.5v6.4h31.3V102h-9.7
		v6.4h16v7.7h-16v15.6c0,6.4-0.7,10.3-2.1,11.8C220.2,145,216.4,145.7,210.2,145.7z M165.5,124.2l5.1-6.6
		c8.1,5.2,15.3,10.7,21.7,16.4l-5.4,6.6C180,134.4,172.9,128.9,165.5,124.2z M192.8,78.3V69h-22.6v9.4H192.8z M192.8,84.8h-22.6
		v10.3h22.6V84.8z M202.2,78.3h22.3V69h-22.3V78.3z M202.2,84.8v10.3h22.3V84.8H202.2z"/>
	<path class="st0" d="M315.3,73.8H333v6.5h-40.9v4.8h81.8v40.3h-24.7v8.8c0,2,0.6,3.2,1.7,3.5c1.1,0.3,5,0.5,11.5,0.5
		c2,0,3.4,0,4.2,0c0.8,0,1.8-0.1,3-0.3c1.2-0.2,2-0.4,2.3-0.5c0.3-0.1,0.8-0.6,1.4-1.3c0.6-0.8,1-1.4,1.1-1.9
		c0.1-0.5,0.3-1.5,0.5-3.1c0.3-1.6,0.5-2.9,0.5-4c0.1-1.1,0.2-3,0.4-5.5l9,0.8c-0.2,3.3-0.4,5.8-0.5,7.5c-0.1,1.7-0.4,3.6-0.8,5.6
		c-0.4,2-0.8,3.4-1.1,4.2c-0.3,0.8-0.9,1.7-1.9,2.7c-1,1-1.9,1.6-2.6,1.9c-0.8,0.2-2.1,0.5-4,0.8c-1.9,0.3-3.6,0.5-5.2,0.5
		c-1.6,0-4,0-7.1,0c-4.4,0-7.8-0.1-10.1-0.2c-2.3-0.1-4.4-0.3-6.2-0.5c-1.8-0.2-3-0.7-3.7-1.4c-0.6-0.7-1.1-1.4-1.4-2.3
		c-0.3-0.8-0.4-2.1-0.4-3.8v-12h-15.8c-1.8,5.7-6.1,10.4-12.9,14.1c-6.8,3.7-16.2,6.2-28,7.3l-2.6-8.1c19.2-1.6,30.4-6.1,33.7-13.4
		h-14h-9.4V85.1h-7.8V40h49.1v6.6h-16.8v5.5h13.8v16.1h-13.8V73.8z M292.1,52.1h14.7v-5.5h-14.7V52.1z M292.1,62.8h28.3v-5.3h-28.3
		V62.8z M306.8,73.8v-5.5h-14.7v5.5H306.8z M300.3,96.9h64.2V91h-64.2V96.9z M300.3,101.9v5.9h64.2v-5.9H300.3z M300.3,112.9v5.9
		h64.2v-5.9H300.3z M330.6,56.4c6.5-5.9,11.7-13,15.5-21.5l8.7,1.3c-0.6,1.6-1.4,3.4-2.4,5.3h32.7v7h-36.8c-1.4,2-2.3,3.4-2.9,4.1
		h36.9V58h-37.5v-4.7c-1.7,2.2-3.8,4.6-6.4,7L330.6,56.4z M343.5,80h-7.2V62.2h46.3V80H343.5z M350.1,74.6v-7.5h-6.6v7.5H350.1z
		 M362.7,74.6v-7.5h-6.6v7.5H362.7z M368.6,74.6h6.6v-7.5h-6.6V74.6z"/>
	<path class="st0" d="M489.4,35.8c14.9,8.7,31.4,16.2,49.6,22.5l-2.4,8.2l-6.9-2.5v34.7h-83.9h-9.3V63.9l-6.9,2.5l-2.4-8.2
		c18.1-6.3,34.7-13.8,49.6-22.5H489.4z M458.8,54.8c-6.5,3-13,5.7-19.6,8.3h88.1c-6.6-2.6-13.1-5.3-19.6-8.3v3h-48.8V54.8z
		 M451.5,142v4.8h-9.6v-43.1h82.5v43.1h-9.6V142H451.5z M478.7,69.8h-32.8v21.9h32.8V69.8z M514.8,119.5v-9h-63.3v9H514.8z
		 M451.5,135.3h63.3v-9.1h-63.3V135.3z M451.9,73.5l7.2-3.4c4.6,5.8,8.7,11.8,12.3,18l-7.5,3.1C460.6,85.2,456.5,79.3,451.9,73.5z
		 M466.6,50.9h33.2c-6.1-3.1-11.6-6.2-16.6-9.1C478.2,44.7,472.7,47.8,466.6,50.9z M487.6,69.8v21.9h32.8V69.8H487.6z M494.6,87.7
		c4.9-5.1,8.7-10.9,11.5-17.4l7.6,2.8c-2.7,6.7-6.8,12.8-12.2,18.4L494.6,87.7z"/>
</g>
</svg>
