<?xml version="1.0" encoding="utf-8"?>
<!-- Generator: Adobe Illustrator 23.0.4, SVG Export Plug-In . SVG Version: 6.00 Build 0)  -->
<svg version="1.1" id="圖層_1" xmlns="http://www.w3.org/2000/svg" xmlns:xlink="http://www.w3.org/1999/xlink" x="0px" y="0px"
	 viewBox="0 0 174 151" style="enable-background:new 0 0 174 151;" xml:space="preserve">
<style type="text/css">
	.st0{fill:#F29600;}
	.st1{fill:#00A199;}
	.st2{fill:#FFFFFF;}
</style>
<g>
	<g>
		<polygon class="st0" points="158,86.6 141.8,108.3 168,111.9 		"/>
	</g>
	<g>
		<polygon class="st1" points="145.5,121 134.2,127.1 144.9,134.2 		"/>
	</g>
</g>
<g>
	<path class="st1" d="M14.8,98.5c-1.4,0.5-2.1,2.1-1.6,3.5c0.5,1.4,2,2.2,3.4,1.6c1.4-0.5,2.1-2.1,1.6-3.5
		C17.7,98.7,16.2,98,14.8,98.5z"/>
</g>
<g>
	<path class="st1" d="M11.2,88.2c-1.4,0.5-2.1,2.1-1.6,3.5c0.5,1.4,2,2.2,3.4,1.6c1.4-0.5,2.1-2.1,1.6-3.5
		C14.1,88.4,12.6,87.7,11.2,88.2z"/>
</g>
<g>
	<path class="st1" d="M30.8,132.7c2.2-5.6,1.3-14.2-1.9-19.2c0,0-12-18.4-12-35.9c0-35.2,27.6-63.8,61.6-63.8
		c34,0,61.6,28.6,61.6,63.8c0,35.2-27.6,63.8-61.6,63.8c-6.6,0-8.7-0.5-8.7-0.5c-5.7-1.4-14.9-1.2-20.4,0.5l-14.9,4.6
		c-5.6,1.7-8.3-1.4-6.1-7L30.8,132.7z"/>
</g>
<g>
	<path class="st0" d="M8.8,79.1l1.8-0.1C9.7,60.3,15.9,42.3,28,28.4C40.2,14.5,56.9,6.3,75,5.4c19.1-1,37.8,6.4,51.3,20.4l1.2-1.3
		C113.6,10.1,94.4,2.5,74.9,3.5c-18.6,1-35.7,9.4-48.2,23.6C14.2,41.4,7.9,59.9,8.8,79.1z"/>
</g>
<g>
	<rect x="102.2" y="78.2" class="st2" width="21.9" height="1.6"/>
	<rect x="76.9" y="79.1" class="st2" width="13.7" height="1.6"/>
	<rect x="66.9" y="83.7" class="st2" width="9" height="1.6"/>
	<rect x="32.4" y="84.2" class="st2" width="14.8" height="1.5"/>
	<rect x="47.2" y="89.7" class="st2" width="16.7" height="1.7"/>
	<rect x="47.2" y="74.6" class="st2" width="13" height="1.7"/>
	<rect x="47.2" y="105.3" class="st2" width="9.1" height="1.7"/>
	<rect x="90.3" y="103.3" class="st2" width="6.3" height="1.6"/>
	<rect x="83.2" y="43.5" class="st2" width="24.6" height="1.7"/>
	<rect x="83.2" y="48.4" class="st2" width="24.6" height="1.7"/>
	<rect x="85.7" y="54.1" class="st2" width="23.3" height="1.7"/>
	<rect x="89.1" y="60.8" class="st2" width="18.1" height="1.7"/>
	<rect x="89.1" y="68.2" class="st2" width="18.1" height="1.7"/>
	<rect x="47.2" y="57.1" class="st2" width="30.7" height="1.7"/>
	<rect x="111.6" y="76.3" class="st2" width="4.9" height="29.5"/>
	<rect x="68.9" y="77.3" class="st2" width="4.8" height="22.1"/>
	<polygon class="st2" points="95,104.9 90.1,104.9 86.9,77.3 91.8,77.3 	"/>
	<rect x="104.1" y="43.5" class="st2" width="4.8" height="6.5"/>
	<rect x="102.9" y="60.8" class="st2" width="4.9" height="10.4"/>
	<rect x="89.1" y="61.8" class="st2" width="4.8" height="9.4"/>
	<rect x="82.4" y="43.5" class="st2" width="4.9" height="23.2"/>
	<rect x="33.8" y="80.7" class="st2" width="4.9" height="14.1"/>
	<rect x="41.3" y="78.9" class="st2" width="4.8" height="15.9"/>
	<rect x="51.1" y="83.4" class="st2" width="5.2" height="22.7"/>
	<rect x="95.7" y="49.2" class="st2" width="4.8" height="12.5"/>
	<polygon class="st2" points="86.9,102.4 83.7,102.4 94.2,86.7 97.4,86.7 	"/>
	<rect x="59.8" y="57.8" class="st2" width="5" height="11.9"/>
	<rect x="119.7" y="97.7" class="st2" width="8.5" height="1.2"/>
	<rect x="101.2" y="84.8" class="st2" width="26.9" height="1.2"/>
	<rect x="123.3" y="84.8" class="st2" width="4.9" height="14"/>
	<rect x="101.2" y="84.8" class="st2" width="4.8" height="14"/>
	<path class="st2" d="M128.8,79c0,2-1.6,3.7-3.6,3.7c-2,0-3.6-1.7-3.6-3.7c0-2,1.6-3.7,3.6-3.7C127.2,75.3,128.8,77,128.8,79z"/>
	<path class="st2" d="M111.4,55c0,2.1-1.6,3.8-3.6,3.8c-2,0-3.6-1.7-3.6-3.8c0-2.1,1.6-3.8,3.6-3.8C109.8,51.2,111.4,52.9,111.4,55z
		"/>
	<path class="st2" d="M66,51.1c0,2.1-1.7,3.8-3.7,3.8c-2.1,0-3.7-1.7-3.7-3.8c0-2.1,1.7-3.8,3.7-3.8C64.3,47.3,66,49,66,51.1z"/>
	<path class="st2" d="M66.9,90.5c0,2.1-1.6,3.8-3.6,3.8c-2,0-3.6-1.7-3.6-3.8c0-2.1,1.6-3.8,3.6-3.8C65.2,86.7,66.9,88.4,66.9,90.5z
		"/>
	<path class="st2" d="M48.4,91.6c0,1.4-1.2,2.6-2.7,2.6c-1.5,0-2.7-1.1-2.7-2.6c0-1.4,1.2-2.5,2.7-2.5
		C47.2,89.1,48.4,90.2,48.4,91.6z"/>
	<path class="st2" d="M97.5,79.9c0,1.4-1.2,2.6-2.7,2.6c-1.5,0-2.7-1.2-2.7-2.6c0-1.4,1.2-2.6,2.7-2.6
		C96.3,77.3,97.5,78.4,97.5,79.9z"/>
	<path class="st2" d="M50,60.8h5.4c0,0-0.5,5.8-6,7.6C50.4,65.6,50,62.5,50,60.8z"/>
	<path class="st2" d="M74.8,60.8h-5.4c0,0,0.5,5.8,6,7.6C74.5,65.6,74.8,62.5,74.8,60.8z"/>
	<polygon class="st2" points="48.5,47.3 55,47.3 55,40.6 	"/>
	<polygon class="st2" points="48.5,54.5 55,54.5 55,47.8 	"/>
	<polygon class="st2" points="68.5,47.3 75.1,47.3 75.1,40.6 	"/>
	<polygon class="st2" points="68.5,47.8 68.5,54.5 75.1,54.5 	"/>
	<path class="st2" d="M67.3,40c0-1.5-1.1-2.8-2.6-2.8c-1.1,0-2,0.6-2.5,1.5c-0.4-0.9-1.3-1.5-2.4-1.5c-1.5,0-2.7,1.2-2.7,2.7
		c0,0.8,0.3,1.4,0.8,1.9h0l4.3,4.4l4.3-4.4l0,0C67,41.3,67.3,40.7,67.3,40z"/>
	<path class="st2" d="M62,74.6c0,0-1.9,7.5-5.7,9.3c-3.3,0-5.2,0-5.2,0V83c0,0,3.7-5.3,3.8-8.3C58.4,74.6,62,74.6,62,74.6z"/>
	<path class="st2" d="M87.2,66.7c0,1.7-0.9,4.5-4.3,5.6c-2.3,0-2.7,0-2.7,0v-0.6c0,0,2.2-1.6,2.2-5C82.4,63.2,87.2,63.4,87.2,66.7z"
		/>
	<rect x="76.9" y="79.1" class="st2" width="4.8" height="20.5"/>
	<path class="st2" d="M81.7,99.6c0,1.6-0.9,4.2-4.3,5.3c-2.3,0-2.7,0-2.7,0v-0.6c0,0,2.2-1.5,2.2-4.7C76.9,96.3,81.7,96.5,81.7,99.6
		z"/>
	<path class="st2" d="M46.2,94.7c0,0,0,6.1-8.7,10c-2.3,0-3.6,0-3.6,0v-0.9c0,0,7.5-4.7,7.5-9.2C43.7,94.7,46.2,94.7,46.2,94.7z"/>
	<path class="st2" d="M33.8,94.7c0,0,0,6.1,8.7,10c2.3,0,3.6,0,3.6,0v-0.9c0,0-7.5-4.7-7.5-9.2C36.3,94.7,33.8,94.7,33.8,94.7z"/>
	<path class="st2" d="M66.9,99.3v3.8c0,0,5.6-2,8.9-3.8c0-1.8,0-3.3,0-3.3S71.4,98.1,66.9,99.3z"/>
	<path class="st2" d="M86.5,91.5c0-1.4-1.1-2.5-2.5-2.6c-1,0-1.9,0.5-2.3,1.4c-0.4-0.8-1.3-1.4-2.3-1.4c-1.4,0-2.5,1.1-2.5,2.5
		c0,0.7,0.3,1.3,0.7,1.8h0l4,4l4.1-4l0,0C86.2,92.7,86.5,92.2,86.5,91.5z"/>
</g>
</svg>
