<?xml version="1.0" encoding="utf-8"?>
<!-- Generator: Adobe Illustrator 15.0.0, SVG Export Plug-In . SVG Version: 6.00 Build 0)  -->
<!DOCTYPE svg PUBLIC "-//W3C//DTD SVG 1.1//EN" "http://www.w3.org/Graphics/SVG/1.1/DTD/svg11.dtd">
<svg version="1.1" id="圖層_1" xmlns="http://www.w3.org/2000/svg" xmlns:xlink="http://www.w3.org/1999/xlink" x="0px" y="0px"
	 width="612px" height="792px" viewBox="0 0 612 792" enable-background="new 0 0 612 792" xml:space="preserve">
<g>
	<polygon fill="#EA5504" points="555.725,435.041 498.745,511.365 590.896,524.027 	"/>
</g>
<g>
	<polygon fill="#00A199" points="511.759,556.034 472.014,577.489 509.648,602.462 	"/>
</g>
<g>
	<path fill="#00A199" d="M52.055,476.896c-4.924,1.759-7.386,7.386-5.627,12.311c1.758,4.924,7.034,7.737,11.958,5.627
		c4.924-1.758,7.386-7.386,5.627-12.31C62.255,477.6,56.979,475.138,52.055,476.896z"/>
</g>
<g>
	<path fill="#00A199" d="M39.393,440.669c-4.924,1.759-7.386,7.386-5.627,12.311c1.758,4.924,7.034,7.737,11.958,5.627
		c4.924-1.758,7.386-7.386,5.627-12.31C49.593,441.372,44.317,438.91,39.393,440.669z"/>
</g>
<g>
	<path fill="#00A199" d="M108.331,597.187c7.738-19.697,4.572-49.945-6.683-67.531c0,0-42.207-64.718-42.207-126.269
		c0-123.808,97.076-224.4,216.662-224.4c119.586,0,216.662,100.593,216.662,224.4c0,123.807-97.076,224.399-216.662,224.399
		c-23.214,0-30.6-1.759-30.6-1.759c-20.048-4.924-52.407-4.221-71.751,1.759l-52.407,16.18
		c-19.696,5.979-29.193-4.925-21.455-24.621L108.331,597.187z"/>
</g>
<g>
	<path fill="#EA5504" d="M30.952,408.662l6.331-0.352c-3.166-65.772,18.642-129.083,61.2-177.973
		c42.91-48.89,101.648-77.731,165.31-80.896c67.18-3.517,132.952,22.51,180.435,71.751l4.221-4.572
		c-48.89-50.648-116.421-77.379-185.007-73.862c-65.421,3.517-125.565,33.062-169.531,83.007
		C49.945,276.062,27.786,341.131,30.952,408.662z"/>
</g>
<g>
	<rect x="359.462" y="405.496" fill="#FFFFFF" width="77.027" height="5.628"/>
	<rect x="270.476" y="408.662" fill="#FFFFFF" width="48.186" height="5.627"/>
	<rect x="235.304" y="424.842" fill="#FFFFFF" width="31.655" height="5.627"/>
	<rect x="113.958" y="426.6" fill="#FFFFFF" width="52.055" height="5.276"/>
	<rect x="166.014" y="445.944" fill="#FFFFFF" width="58.738" height="5.979"/>
	<rect x="166.014" y="392.834" fill="#FFFFFF" width="45.724" height="5.98"/>
	<rect x="166.014" y="500.813" fill="#FFFFFF" width="32.007" height="5.979"/>
	<rect x="317.606" y="493.779" fill="#FFFFFF" width="22.159" height="5.628"/>
	<rect x="292.634" y="283.448" fill="#FFFFFF" width="86.524" height="5.979"/>
	<rect x="292.634" y="300.683" fill="#FFFFFF" width="86.524" height="5.979"/>
	<rect x="301.428" y="320.731" fill="#FFFFFF" width="81.951" height="5.979"/>
	<rect x="313.386" y="344.296" fill="#FFFFFF" width="63.662" height="5.979"/>
	<rect x="313.386" y="370.324" fill="#FFFFFF" width="63.662" height="5.979"/>
	<rect x="166.014" y="331.283" fill="#FFFFFF" width="107.979" height="5.979"/>
	<rect x="392.524" y="398.814" fill="#FFFFFF" width="17.234" height="103.758"/>
	<rect x="242.338" y="402.331" fill="#FFFFFF" width="16.883" height="77.731"/>
	<polygon fill="#FFFFFF" points="334.138,499.407 316.903,499.407 305.648,402.331 322.883,402.331 	"/>
	<rect x="366.145" y="283.448" fill="#FFFFFF" width="16.883" height="22.862"/>
	<rect x="361.924" y="344.296" fill="#FFFFFF" width="17.234" height="36.58"/>
	<rect x="313.386" y="347.814" fill="#FFFFFF" width="16.883" height="33.062"/>
	<rect x="289.821" y="283.448" fill="#FFFFFF" width="17.235" height="81.6"/>
	<rect x="118.883" y="414.289" fill="#FFFFFF" width="17.234" height="49.594"/>
	<rect x="145.262" y="407.959" fill="#FFFFFF" width="16.883" height="55.924"/>
	<rect x="179.731" y="423.786" fill="#FFFFFF" width="18.29" height="79.842"/>
	<rect x="336.6" y="303.497" fill="#FFFFFF" width="16.883" height="43.965"/>
	<polygon fill="#FFFFFF" points="305.648,490.614 294.393,490.614 331.324,435.394 342.579,435.394 	"/>
	<rect x="210.331" y="333.745" fill="#FFFFFF" width="17.586" height="41.855"/>
	<rect x="421.014" y="474.083" fill="#FFFFFF" width="29.896" height="4.221"/>
	<rect x="355.945" y="428.71" fill="#FFFFFF" width="94.613" height="4.221"/>
	<rect x="433.676" y="428.71" fill="#FFFFFF" width="17.234" height="49.242"/>
	<rect x="355.945" y="428.71" fill="#FFFFFF" width="16.882" height="49.242"/>
	<path fill="#FFFFFF" d="M453.021,408.311c0,7.034-5.627,13.014-12.662,13.014c-7.034,0-12.662-5.979-12.662-13.014
		c0-7.035,5.628-13.014,12.662-13.014C447.394,395.296,453.021,401.275,453.021,408.311z"/>
	<path fill="#FFFFFF" d="M391.82,323.896c0,7.386-5.627,13.366-12.662,13.366c-7.034,0-12.662-5.979-12.662-13.366
		s5.628-13.365,12.662-13.365C386.193,310.531,391.82,316.51,391.82,323.896z"/>
	<path fill="#FFFFFF" d="M232.138,310.179c0,7.386-5.979,13.366-13.014,13.366c-7.386,0-13.014-5.979-13.014-13.366
		s5.979-13.365,13.014-13.365C226.159,296.814,232.138,302.793,232.138,310.179z"/>
	<path fill="#FFFFFF" d="M235.304,448.759c0,7.386-5.628,13.365-12.662,13.365c-7.035,0-12.662-5.979-12.662-13.365
		c0-7.387,5.627-13.365,12.662-13.365C229.324,435.394,235.304,441.372,235.304,448.759z"/>
	<path fill="#FFFFFF" d="M170.234,452.628c0,4.924-4.221,9.145-9.497,9.145s-9.497-3.869-9.497-9.145
		c0-4.925,4.221-8.794,9.497-8.794S170.234,447.703,170.234,452.628z"/>
	<path fill="#FFFFFF" d="M342.931,411.476c0,4.925-4.221,9.146-9.496,9.146c-5.276,0-9.497-4.221-9.497-9.146
		c0-4.924,4.221-9.145,9.497-9.145C338.71,402.331,342.931,406.2,342.931,411.476z"/>
	<path fill="#FFFFFF" d="M175.862,344.296h18.993c0,0-1.758,20.4-21.103,26.731C177.269,361.179,175.862,350.276,175.862,344.296z"
		/>
	<path fill="#FFFFFF" d="M263.09,344.296h-18.993c0,0,1.758,20.4,21.104,26.731C262.035,361.179,263.09,350.276,263.09,344.296z"/>
	<polygon fill="#FFFFFF" points="170.586,296.814 193.448,296.814 193.448,273.248 	"/>
	<polygon fill="#FFFFFF" points="170.586,322.138 193.448,322.138 193.448,298.572 	"/>
	<polygon fill="#FFFFFF" points="240.931,296.814 264.145,296.814 264.145,273.248 	"/>
	<polygon fill="#FFFFFF" points="240.931,298.572 240.931,322.138 264.145,322.138 	"/>
	<path fill="#FFFFFF" d="M236.71,271.138c0-5.275-3.869-9.848-9.145-9.848c-3.869,0-7.034,2.11-8.793,5.276
		c-1.407-3.166-4.572-5.276-8.441-5.276c-5.276,0-9.497,4.221-9.497,9.497c0,2.814,1.055,4.924,2.814,6.683l0,0l15.124,15.476
		l15.124-15.476l0,0C235.655,275.71,236.71,273.6,236.71,271.138z"/>
	<path fill="#FFFFFF" d="M218.069,392.834c0,0-6.683,26.379-20.048,32.71c-11.607,0-18.29,0-18.29,0v-3.166
		c0,0,13.014-18.641,13.366-29.193C205.407,392.834,218.069,392.834,218.069,392.834z"/>
	<path fill="#FFFFFF" d="M306.703,365.048c0,5.979-3.165,15.828-15.124,19.696c-8.089,0-9.496,0-9.496,0v-2.11
		c0,0,7.738-5.627,7.738-17.586C289.821,352.738,306.703,353.441,306.703,365.048z"/>
	<rect x="270.476" y="408.662" fill="#FFFFFF" width="16.882" height="72.104"/>
	<path fill="#FFFFFF" d="M287.358,480.766c0,5.628-3.166,14.772-15.124,18.642c-8.089,0-9.497,0-9.497,0v-2.11
		c0,0,7.738-5.276,7.738-16.531C270.476,469.158,287.358,469.862,287.358,480.766z"/>
	<path fill="#FFFFFF" d="M162.497,463.531c0,0,0,21.455-30.6,35.172c-8.089,0-12.662,0-12.662,0v-3.165
		c0,0,26.379-16.531,26.379-32.358C153.704,463.531,162.497,463.531,162.497,463.531z"/>
	<path fill="#FFFFFF" d="M118.883,463.531c0,0,0,21.455,30.6,35.172c8.089,0,12.662,0,12.662,0v-3.165
		c0,0-26.379-16.531-26.379-32.358C127.676,463.531,118.883,463.531,118.883,463.531z"/>
	<path fill="#FFFFFF" d="M235.304,479.71v13.366c0,0,19.696-7.035,31.303-13.366c0-6.331,0-11.606,0-11.606
		S251.131,475.489,235.304,479.71z"/>
	<path fill="#FFFFFF" d="M304.241,452.275c0-4.924-3.869-8.793-8.793-9.145c-3.517,0-6.683,1.759-8.09,4.924
		c-1.407-2.813-4.572-4.924-8.089-4.924c-4.924,0-8.793,3.869-8.793,8.793c0,2.462,1.055,4.572,2.462,6.331l0,0l14.069,14.069
		l14.421-14.069l0,0C303.187,456.496,304.241,454.738,304.241,452.275z"/>
</g>
</svg>
