<?xml version="1.0" encoding="utf-8"?>
<!-- Generator: Adobe Illustrator 23.0.4, SVG Export Plug-In . SVG Version: 6.00 Build 0)  -->
<svg version="1.1" id="圖層_1" xmlns="http://www.w3.org/2000/svg" xmlns:xlink="http://www.w3.org/1999/xlink" x="0px" y="0px"
	 viewBox="0 0 39 39" style="enable-background:new 0 0 39 39;" xml:space="preserve">
<style type="text/css">
	.st0{fill:#3AAE36;}
	.st1{fill:#FFFFFF;}
	.st2{fill:#3FAF36;}
</style>
<g>
	<path class="st0" d="M20.1,1.6L20.1,1.6c9.9,0,17.9,8,17.9,17.9l0,0c0,9.9-8,17.9-17.9,17.9l0,0c-9.9,0-17.9-8-17.9-17.9l0,0
		C2.2,9.6,10.3,1.6,20.1,1.6z"/>
	<g>
		<path class="st1" d="M30.4,20.2c0.1-0.3,0.1-0.5,0.1-0.6c0-0.3,0-0.7,0-0.8c-0.3-4.4-4.8-7.9-10.4-7.9c-5.7,0-10.4,3.7-10.4,8.3
			c0,4.2,3.9,7.7,9,8.2c0.3,0,0.5,0.3,0.5,0.6l-0.2,1.9c-0.1,0.4,0.4,0.8,0.8,0.6c4.3-2.1,6.9-4.2,8.4-6.1c0.3-0.3,1.2-1.6,1.4-1.9
			C30,21.8,30.3,21,30.4,20.2z"/>
		<path class="st2" d="M14.4,20.9v-3.5c0-0.3-0.2-0.5-0.5-0.5l0,0c-0.3,0-0.5,0.2-0.5,0.5v4c0,0.3,0.2,0.5,0.5,0.5H16
			c0.3,0,0.5-0.2,0.5-0.5l0,0c0-0.3-0.2-0.5-0.5-0.5L14.4,20.9L14.4,20.9z"/>
		<path class="st2" d="M17.7,21.9h-0.2c-0.2,0-0.4-0.2-0.4-0.4v-4.2c0-0.2,0.2-0.4,0.4-0.4h0.2c0.2,0,0.4,0.2,0.4,0.4v4.2
			C18.1,21.7,17.9,21.9,17.7,21.9z"/>
		<path class="st2" d="M22,17.4v2.5c0,0-2.1-2.8-2.2-2.8c-0.1-0.1-0.3-0.2-0.4-0.2c-0.3,0-0.5,0.3-0.5,0.6v4c0,0.3,0.2,0.5,0.5,0.5
			l0,0c0.3,0,0.5-0.2,0.5-0.5V19c0,0,2.2,2.8,2.2,2.8c0.1,0.1,0.2,0.1,0.4,0.1c0.3,0,0.5-0.3,0.5-0.6v-4c0-0.3-0.2-0.5-0.5-0.5l0,0
			C22.2,16.9,22,17.1,22,17.4z"/>
		<path class="st2" d="M27.1,17.4L27.1,17.4c0-0.3-0.2-0.5-0.5-0.5h-2.1c-0.3,0-0.5,0.2-0.5,0.5v4c0,0.3,0.2,0.5,0.5,0.5h2.1
			c0.3,0,0.5-0.2,0.5-0.5l0,0c0-0.3-0.2-0.5-0.5-0.5h-1.6v-0.9h1.6c0.3,0,0.5-0.2,0.5-0.5l0,0c0-0.3-0.2-0.5-0.5-0.5h-1.6v-0.9h1.6
			C26.8,17.9,27.1,17.7,27.1,17.4z"/>
	</g>
</g>
</svg>
