<?xml version="1.0" encoding="utf-8"?>
<!-- Generator: Adobe Illustrator 23.0.4, SVG Export Plug-In . SVG Version: 6.00 Build 0)  -->
<svg version="1.1" id="圖層_1" xmlns="http://www.w3.org/2000/svg" xmlns:xlink="http://www.w3.org/1999/xlink" x="0px" y="0px"
	 viewBox="0 0 595 213" style="enable-background:new 0 0 595 213;" xml:space="preserve">
<style type="text/css">
	.st0{fill:#00A199;}
	.st1{fill:#EA5504;}
	.st2{fill:#FFFFFF;}
	.st3{fill:#00A29A;}
</style>
<g>
	<path class="st0" d="M267.8,10.5h-8.6c1.3,1,2.6,2.2,3.4,3.1l-3.6,3.1h4.1v12.5h-15.7v2.9h18.1c0,0,0,1.4-0.1,2.1
		c-0.5,6.6-1.1,9.8-2.4,11.1c-1,1.2-2.2,1.6-3.8,1.7c-1.4,0.1-3.7,0.2-6.3,0.1c-0.1-1.7-0.7-3.9-1.6-5.3c2.1,0.2,4.2,0.2,5,0.2
		c0.7,0,1.2,0,1.7-0.4c0.5-0.5,0.9-1.8,1.2-4.6h-11.8v12.2h-5.8v-9.6c-4.2,4.1-9.6,7.4-15,9.5c-0.8-1.4-2.5-3.6-3.7-4.7
		c5.1-1.5,10.5-4.3,14.4-7.4h-10.6c0.7-3.4,1.5-8.5,1.8-12.7h13.2v-2.8h-15v-4.8h10.1c-1.1-1.4-3-3.2-4.6-4.6l1.9-1.6h-2.9
		c-1.6,2.5-3.4,4.7-5,6.4c-0.8-1-2.8-3.1-4-4c2.9-2.6,5.6-6.5,7.2-10.4l5.2,1.5c-0.2,0.6-0.5,1.3-0.9,2h10.9v4.5h-7.1
		c1.3,1.1,2.6,2.4,3.4,3.3l-3.2,2.9h20.9c-1.1-1.3-3.2-3.1-4.8-4.4l2.1-1.8h-4.1c-1.2,1.9-2.5,3.5-3.9,4.8c-1-1-3.1-2.7-4.4-3.4
		c2.7-2.3,4.9-5.8,6.2-9.3l5.3,1.3c-0.2,0.7-0.5,1.4-0.8,2.1h13.6V10.5z M241.7,29.2h-8.1c-0.1,1-0.2,2-0.4,2.9h8.5V29.2z
		 M257.3,21.5h-9.8v2.8h9.8V21.5z"/>
	<path class="st0" d="M321.1,22.4v6.4h-45.5v-6.4H321.1z"/>
	<path class="st0" d="M371.2,19.8h-31.9c0,8.6-0.8,21.4-6,29.6c-1.1-0.9-3.8-2.5-5.2-3.1c4.9-7.6,5.3-18.7,5.3-26.5V5.3h37.9
		L371.2,19.8L371.2,19.8z M365.2,10.6h-25.9v3.9h25.9V10.6z M372,23.7v25.5h-5.6v-1.8h-25.7V23.7h5.6v18.6h20V23.7H372z M353.8,35
		v-4.8h-4.9v-4.8h4.9V21h5.3v4.4h4.9v4.8h-4.9V35h5.9v4.8h-17.2V35H353.8z"/>
</g>
<path class="st1" d="M15,141.5l-6.7-14.8c6.8-5.7,13-12.1,18.5-19.2c5.5-7.1,9.7-14.2,12.8-21.4l16,2.1c-0.3,1.1-0.9,2.7-1.7,4.8
	h43.4v12.1c-2.4,2.9-5.4,5.9-9.2,9.2h33.8v13.1H37.4v14.2c0,13.1-1.4,24.2-4.2,33.4c-2.8,9.1-7.5,18-14,26.6L8.2,188
	c5-7.4,8.5-14.7,10.4-21.8c1.9-7.1,2.9-17.2,3.1-30.1C18.7,138.5,16.5,140.3,15,141.5z M67.7,114.3c2.8-2.3,6.2-5.4,10.1-9.2H47.6
	c-2.7,4.3-4.7,7.3-6.1,9.2H67.7z M93.3,147.4H62.8v33.1c0,3,0.3,4.7,0.9,5.3c0.6,0.5,2.8,0.9,6.5,1.1c4.4,0.2,8.4,0.4,12.1,0.4
	c4.2,0,8.9-0.1,14.2-0.4c1.8-0.1,3.1-0.1,3.8-0.2c0.7,0,1.6-0.3,2.5-0.8c0.9-0.5,1.5-0.9,1.8-1.4c0.2-0.4,0.6-1.4,1.1-3.1
	c0.5-1.6,0.7-3.2,0.9-4.6c0.1-1.4,0.3-3.8,0.7-7l16.4,1.4c-0.4,4.8-0.8,8.5-1.1,11.3c-0.3,2.7-0.9,5.3-1.7,7.6
	c-0.8,2.3-1.6,4.1-2.4,5.1c-0.8,1.1-2.2,2-4,2.8c-1.9,0.8-3.7,1.3-5.6,1.5c-1.9,0.2-4.6,0.4-8,0.7c-7.2,0.4-13.9,0.6-20.2,0.6
	c-5.3,0-11.1-0.2-17.4-0.6c-2.8-0.2-5-0.4-6.6-0.6c-1.6-0.2-3.1-0.6-4.5-1.1c-1.4-0.5-2.4-1.1-3-1.7c-0.6-0.6-1.1-1.6-1.5-3
	c-0.5-1.4-0.7-2.9-0.8-4.4c-0.1-1.5-0.1-3.6-0.1-6.4v-48.2h63.1c-0.5,12.6-1.2,21.6-2.2,27c-1,5.4-2.4,8.9-4.2,10.5
	c-1.8,1.6-4.9,2.3-9.3,2.3c-4.6,0-11.6-0.3-20.9-0.9l-0.7-12.5c5.9,0.5,10.9,0.7,15.1,0.7c1.6,0,2.6-0.3,3.2-0.8
	c0.6-0.5,1.1-1.8,1.4-3.7C92.6,155.6,92.9,152.2,93.3,147.4z"/>
<path class="st1" d="M200.6,180.2c0,2.8,0.3,4.5,1.1,5c0.7,0.5,3,0.9,7,1.1c3.8,0.2,9,0.4,15.7,0.4c6.2,0,11.4-0.1,15.6-0.4
	c2.5-0.2,4.2-0.3,5.1-0.3c0.9,0,2-0.3,3.3-0.8c1.2-0.5,2-0.9,2.3-1.3c0.3-0.4,0.7-1.3,1.2-2.9c0.5-1.6,0.8-3,0.9-4.3
	c0.1-1.3,0.2-3.5,0.5-6.7l16.9,2.1c-0.2,4.5-0.4,8-0.6,10.5c-0.2,2.6-0.7,4.9-1.4,7.2c-0.7,2.2-1.4,3.9-2.2,4.9c-0.8,1-2,2-3.8,2.8
	c-1.7,0.8-3.6,1.4-5.5,1.6c-1.9,0.2-4.6,0.5-8,0.6c-6.8,0.4-14.8,0.6-24,0.6c-6.8,0-14.8-0.2-24-0.6c-7.6-0.4-12.3-1.5-14.2-3.2
	c-1.9-1.7-2.8-5.6-2.8-11.7v-19.2c-6.5,2.7-12.3,4.9-17.3,6.6l-5.7-14.6c16.2-5,31.2-11.4,44.8-19.2h-44.1v-13.6h43v-13h-32.4V98.6
	h32.4V87.4h16.9v11.3h24.9v8.5c5.4-5.7,10-11.2,13.7-16.6l12.6,8.9c-6.8,9.2-14.4,17.7-23,25.4h26.3v13.6h-43.4
	c-9.6,7-20.2,13.4-31.8,19.3v4c20.9-4.5,40.8-10.6,60-18.3l5.6,13.4c-19.7,7.7-41.5,13.9-65.5,18.5V180.2z M241.4,111.9h-20.2v13
	h4.9C231.6,120.8,236.7,116.5,241.4,111.9z"/>
<path class="st1" d="M419.8,136.4c4.4,3.9,7.8,8.5,10.3,13.7c2.5,5.3,3.7,10.7,3.7,16.2c0,7.7-1.5,13.2-4.6,16.5
	c-3.1,3.3-7.9,5-14.6,5h-7.9l-2.8-13.9h2.7c4.6,0,7.6-0.6,9.1-1.7c1.4-1.1,2.2-3.4,2.2-7c0-8.6-4.9-18-14.7-28.3
	c5.4-9.6,9.8-20.4,13.5-32.5h-14.8v96.1h-15.6v-94.7c-3.1,5.5-6.4,10.6-9.9,15.2h6.6v13.1h-17.6c-3.8,4-6.7,6.8-8.8,8.7h23.1v57.8
	h-15.3V196h-21.6v4.6h-15.8v-36.5c-2.8,1.5-5.4,2.8-7.7,4l-4.1-15.1c10.6-5.2,20.2-11.5,28.8-18.8h-26.6v-13.1h21v-11.1h-15.5V97.1
	h15.5v-10h16v10h14.6v9c3-4.5,5.8-9.4,8.3-14.6l9,3.8v-3.6h46.5v12.7C429.1,116,424.8,126.6,419.8,136.4z M342.7,164.1h21.6v-8.9
	h-21.6V164.1z M342.7,175.2v9h21.6v-9H342.7z M366.3,109.9h-12.5v11.1h3.6C360.6,117.5,363.6,113.8,366.3,109.9z"/>
<path class="st1" d="M580.2,92.1V105h-45.3v6.8H572V167h-15.5V160h-24.7c-1.6,6.4-3.9,11.9-7.1,16.7c14.5,5.4,33.4,8.5,56.6,9
	l-2.5,14c-25.3-0.6-46.8-4.8-64.6-12.6c-8.6,6-22.2,10.2-40.8,12.6l-4-13.4c13.7-2,23.7-4.4,29.9-7.2c-5.4-3.5-10.3-7.6-14.5-12.1
	l9.5-7h-0.4h-15.5v-48.2H518V105h-47.4V92.1H580.2z M498.5,160c3.5,3.8,7.7,7.1,12.4,10c1.8-2.6,3.3-6,4.5-10H498.5z"/>
<g>
	<rect x="493.7" y="121.6" class="st2" width="61.4" height="2.5"/>
	<rect x="493.7" y="128.1" class="st2" width="61.4" height="2.5"/>
	<rect x="493.7" y="141.1" class="st2" width="61.4" height="2.5"/>
	<rect x="493.7" y="147.6" class="st2" width="61.4" height="2.5"/>
	<rect x="498.8" y="118.3" class="st2" width="2.5" height="34.9"/>
	<rect x="511" y="118.3" class="st2" width="2.5" height="34.9"/>
	<rect x="535.3" y="118.3" class="st2" width="2.5" height="34.9"/>
	<rect x="547.5" y="118.3" class="st2" width="2.5" height="34.9"/>
</g>
<circle class="st3" cx="296.5" cy="181.3" r="17.3"/>
<g>
	<path class="st2" d="M299.8,184.6v9.4h-6.6v-9.4h-9.4V178h9.4v-9.4h6.6v9.4h9.4v6.6H299.8z"/>
</g>
</svg>
